<?xml version="1.0" encoding="UTF-8" standalone="no"?><svg xmlns="http://www.w3.org/2000/svg" xmlns:xlink="http://www.w3.org/1999/xlink" contentScriptType="application/ecmascript" contentStyleType="text/css" height="571px" preserveAspectRatio="none" style="width:1200px;height:571px;" version="1.1" viewBox="0 0 1200 571" width="1200px" zoomAndPan="magnify"><defs><filter height="300%" id="fogqxfojfwz4l" width="300%" x="-1" y="-1"><feGaussianBlur result="blurOut" stdDeviation="2.0"/><feColorMatrix in="blurOut" result="blurOut2" type="matrix" values="0 0 0 0 0 0 0 0 0 0 0 0 0 0 0 0 0 0 .4 0"/><feOffset dx="4.0" dy="4.0" in="blurOut2" result="blurOut3"/><feBlend in="SourceGraphic" in2="blurOut3" mode="normal"/></filter></defs><g><!--class HttpInterface--><rect fill="#FEFECE" filter="url(#fogqxfojfwz4l)" height="138.1377" id="HttpInterface" style="stroke: #A80036; stroke-width: 1.5;" width="372" x="408.5" y="8"/><ellipse cx="555.75" cy="24" fill="#ADD1B2" rx="11" ry="11" style="stroke: #A80036; stroke-width: 1.0;"/><path d="M555.4375,30 Q553.5,30 552.375,28.5703 Q551.25,27.1406 551.25,24.1875 Q551.25,21.6875 552.4375,20 Q553.625,18.3125 555.6875,18.3125 Q556.1406,18.3125 556.5781,18.3125 Q557.0156,18.3125 557.3281,18.3125 Q557.5781,18.3125 557.7422,18.3125 Q557.9063,18.3125 558.3125,18.3125 L559.0156,22 L557.9531,22 Q557.5156,20.9063 556.9453,20.4531 Q556.375,20 555.4531,20 Q554.2969,20 553.6172,21.1797 Q552.9375,22.3594 552.9375,24.1875 Q552.9375,26.2031 553.4609,27.2578 Q553.9844,28.3125 555.3906,28.3125 Q556.3125,28.3125 556.9609,27.7422 Q557.6094,27.1719 557.9531,25.7813 L558.9844,26.2969 Q558.5938,28.0469 557.6563,29.0234 Q556.7188,30 555.4375,30 Z "/><text fill="#000000" font-family="sans-serif" font-size="12" lengthAdjust="spacingAndGlyphs" textLength="69" x="576.25" y="29.5576">HttpInterface</text><line style="stroke: #A80036; stroke-width: 1.5;" x1="409.5" x2="779.5" y1="40" y2="40"/><line style="stroke: #A80036; stroke-width: 1.5;" x1="409.5" x2="779.5" y1="48" y2="48"/><text fill="#000000" font-family="sans-serif" font-size="11" font-style="italic" lengthAdjust="spacingAndGlyphs" textLength="150" x="414.5" y="64.606">ObjectMapper objectMapper()</text><text fill="#000000" font-family="sans-serif" font-size="11" font-style="italic" lengthAdjust="spacingAndGlyphs" textLength="115" x="414.5" y="79.6289">HttpHelper httpHelper()</text><text fill="#000000" font-family="sans-serif" font-size="11" font-style="italic" lengthAdjust="spacingAndGlyphs" textLength="220" x="414.5" y="94.6519">HttpHelper httpHelper(HttpConfig httpConfig)</text><text fill="#000000" font-family="sans-serif" font-size="11" font-style="italic" lengthAdjust="spacingAndGlyphs" textLength="164" x="414.5" y="109.6748">HttpMessageCallBack callBack()</text><text fill="#000000" font-family="sans-serif" font-size="11" lengthAdjust="spacingAndGlyphs" textLength="360" x="414.5" y="124.6978">&lt;T&gt; ResponseWrapper&lt;T&gt; requestForEntity(...) throws InterfaceException</text><text fill="#000000" font-family="sans-serif" font-size="11" lengthAdjust="spacingAndGlyphs" textLength="262" x="414.5" y="139.7207">&lt;T&gt; T requestForObject(...) throws InterfaceException</text><!--class AbstractHttpInterface--><rect fill="#FEFECE" filter="url(#fogqxfojfwz4l)" height="78.0459" id="AbstractHttpInterface" style="stroke: #A80036; stroke-width: 1.5;" width="529" x="330" y="206"/><ellipse cx="533.75" cy="222" fill="#ADD1B2" rx="11" ry="11" style="stroke: #A80036; stroke-width: 1.0;"/><path d="M533.4375,228 Q531.5,228 530.375,226.5703 Q529.25,225.1406 529.25,222.1875 Q529.25,219.6875 530.4375,218 Q531.625,216.3125 533.6875,216.3125 Q534.1406,216.3125 534.5781,216.3125 Q535.0156,216.3125 535.3281,216.3125 Q535.5781,216.3125 535.7422,216.3125 Q535.9063,216.3125 536.3125,216.3125 L537.0156,220 L535.9531,220 Q535.5156,218.9063 534.9453,218.4531 Q534.375,218 533.4531,218 Q532.2969,218 531.6172,219.1797 Q530.9375,220.3594 530.9375,222.1875 Q530.9375,224.2031 531.4609,225.2578 Q531.9844,226.3125 533.3906,226.3125 Q534.3125,226.3125 534.9609,225.7422 Q535.6094,225.1719 535.9531,223.7813 L536.9844,224.2969 Q536.5938,226.0469 535.6563,227.0234 Q534.7188,228 533.4375,228 Z "/><text fill="#000000" font-family="sans-serif" font-size="12" lengthAdjust="spacingAndGlyphs" textLength="113" x="554.25" y="227.5576">AbstractHttpInterface</text><line style="stroke: #A80036; stroke-width: 1.5;" x1="331" x2="858" y1="238" y2="238"/><text fill="#000000" font-family="sans-serif" font-size="11" lengthAdjust="spacingAndGlyphs" textLength="9" x="336" y="254.606">...</text><line style="stroke: #A80036; stroke-width: 1.5;" x1="331" x2="858" y1="261.0229" y2="261.0229"/><text fill="#000000" font-family="sans-serif" font-size="11" lengthAdjust="spacingAndGlyphs" textLength="517" x="336" y="277.6289">&lt;T&gt; T handleResponse(HttpConfig httpConfig, final Request request, final ResponseExtractor&lt;T&gt; extractor)</text><!--class JsonInterfaceHelper--><rect fill="#FEFECE" filter="url(#fogqxfojfwz4l)" height="78.0459" id="JsonInterfaceHelper" style="stroke: #A80036; stroke-width: 1.5;" width="579" x="610" y="344"/><ellipse cx="839.75" cy="360" fill="#ADD1B2" rx="11" ry="11" style="stroke: #A80036; stroke-width: 1.0;"/><path d="M839.4375,366 Q837.5,366 836.375,364.5703 Q835.25,363.1406 835.25,360.1875 Q835.25,357.6875 836.4375,356 Q837.625,354.3125 839.6875,354.3125 Q840.1406,354.3125 840.5781,354.3125 Q841.0156,354.3125 841.3281,354.3125 Q841.5781,354.3125 841.7422,354.3125 Q841.9063,354.3125 842.3125,354.3125 L843.0156,358 L841.9531,358 Q841.5156,356.9063 840.9453,356.4531 Q840.375,356 839.4531,356 Q838.2969,356 837.6172,357.1797 Q836.9375,358.3594 836.9375,360.1875 Q836.9375,362.2031 837.4609,363.2578 Q837.9844,364.3125 839.3906,364.3125 Q840.3125,364.3125 840.9609,363.7422 Q841.6094,363.1719 841.9531,361.7813 L842.9844,362.2969 Q842.5938,364.0469 841.6563,365.0234 Q840.7188,366 839.4375,366 Z "/><text fill="#000000" font-family="sans-serif" font-size="12" lengthAdjust="spacingAndGlyphs" textLength="111" x="860.25" y="365.5576">JsonInterfaceHelper</text><line style="stroke: #A80036; stroke-width: 1.5;" x1="611" x2="1188" y1="376" y2="376"/><text fill="#000000" font-family="sans-serif" font-size="11" lengthAdjust="spacingAndGlyphs" textLength="9" x="616" y="392.606">...</text><line style="stroke: #A80036; stroke-width: 1.5;" x1="611" x2="1188" y1="399.0229" y2="399.0229"/><text fill="#000000" font-family="sans-serif" font-size="11" lengthAdjust="spacingAndGlyphs" textLength="567" x="616" y="415.6289">JsonInterfaceHelper(final HttpConfig httpConfig,final ObjectMapper jsonConverter,final HttpMessageCallBack callBack)</text><!--class XmlInterfaceHelper--><rect fill="#FEFECE" filter="url(#fogqxfojfwz4l)" height="78.0459" id="XmlInterfaceHelper" style="stroke: #A80036; stroke-width: 1.5;" width="569" x="6" y="344"/><ellipse cx="233.75" cy="360" fill="#ADD1B2" rx="11" ry="11" style="stroke: #A80036; stroke-width: 1.0;"/><path d="M233.4375,366 Q231.5,366 230.375,364.5703 Q229.25,363.1406 229.25,360.1875 Q229.25,357.6875 230.4375,356 Q231.625,354.3125 233.6875,354.3125 Q234.1406,354.3125 234.5781,354.3125 Q235.0156,354.3125 235.3281,354.3125 Q235.5781,354.3125 235.7422,354.3125 Q235.9063,354.3125 236.3125,354.3125 L237.0156,358 L235.9531,358 Q235.5156,356.9063 234.9453,356.4531 Q234.375,356 233.4531,356 Q232.2969,356 231.6172,357.1797 Q230.9375,358.3594 230.9375,360.1875 Q230.9375,362.2031 231.4609,363.2578 Q231.9844,364.3125 233.3906,364.3125 Q234.3125,364.3125 234.9609,363.7422 Q235.6094,363.1719 235.9531,361.7813 L236.9844,362.2969 Q236.5938,364.0469 235.6563,365.0234 Q234.7188,366 233.4375,366 Z "/><text fill="#000000" font-family="sans-serif" font-size="12" lengthAdjust="spacingAndGlyphs" textLength="105" x="254.25" y="365.5576">XmlInterfaceHelper</text><line style="stroke: #A80036; stroke-width: 1.5;" x1="7" x2="574" y1="376" y2="376"/><text fill="#000000" font-family="sans-serif" font-size="11" lengthAdjust="spacingAndGlyphs" textLength="9" x="12" y="392.606">...</text><line style="stroke: #A80036; stroke-width: 1.5;" x1="7" x2="574" y1="399.0229" y2="399.0229"/><text fill="#000000" font-family="sans-serif" font-size="11" lengthAdjust="spacingAndGlyphs" textLength="557" x="12" y="415.6289">XmlInterfaceHelper(final HttpConfig httpConfig,final ObjectMapper xmlConverter,final HttpMessageCallBack callBack)</text><!--class HttpHelper--><rect fill="#FEFECE" filter="url(#fogqxfojfwz4l)" height="78.0459" id="HttpHelper" style="stroke: #A80036; stroke-width: 1.5;" width="289" x="450" y="482"/><ellipse cx="560.75" cy="498" fill="#ADD1B2" rx="11" ry="11" style="stroke: #A80036; stroke-width: 1.0;"/><path d="M560.4375,504 Q558.5,504 557.375,502.5703 Q556.25,501.1406 556.25,498.1875 Q556.25,495.6875 557.4375,494 Q558.625,492.3125 560.6875,492.3125 Q561.1406,492.3125 561.5781,492.3125 Q562.0156,492.3125 562.3281,492.3125 Q562.5781,492.3125 562.7422,492.3125 Q562.9063,492.3125 563.3125,492.3125 L564.0156,496 L562.9531,496 Q562.5156,494.9063 561.9453,494.4531 Q561.375,494 560.4531,494 Q559.2969,494 558.6172,495.1797 Q557.9375,496.3594 557.9375,498.1875 Q557.9375,500.2031 558.4609,501.2578 Q558.9844,502.3125 560.3906,502.3125 Q561.3125,502.3125 561.9609,501.7422 Q562.6094,501.1719 562.9531,499.7813 L563.9844,500.2969 Q563.5938,502.0469 562.6563,503.0234 Q561.7188,504 560.4375,504 Z "/><text fill="#000000" font-family="sans-serif" font-size="12" lengthAdjust="spacingAndGlyphs" textLength="59" x="581.25" y="503.5576">HttpHelper</text><line style="stroke: #A80036; stroke-width: 1.5;" x1="451" x2="738" y1="514" y2="514"/><text fill="#000000" font-family="sans-serif" font-size="11" lengthAdjust="spacingAndGlyphs" textLength="9" x="456" y="530.606">...</text><line style="stroke: #A80036; stroke-width: 1.5;" x1="451" x2="738" y1="537.0229" y2="537.0229"/><text fill="#000000" font-family="sans-serif" font-size="11" lengthAdjust="spacingAndGlyphs" textLength="277" x="456" y="553.6289">Response execute(Request request) throws IOException</text><!--link HttpInterface to AbstractHttpInterface--><path d="M594.5,166.552 C594.5,180.274 594.5,193.794 594.5,205.6 " fill="none" id="HttpInterface-AbstractHttpInterface" style="stroke: #A80036; stroke-width: 1.0;"/><polygon fill="none" points="587.5,166.477,594.5,146.477,601.5,166.477,587.5,166.477" style="stroke: #A80036; stroke-width: 1.0;"/><!--link AbstractHttpInterface to JsonInterfaceHelper--><path d="M698.273,292.272 C736.01,309.099 778.195,327.91 814.156,343.945 " fill="none" id="AbstractHttpInterface-JsonInterfaceHelper" style="stroke: #A80036; stroke-width: 1.0; stroke-dasharray: 7.0,7.0;"/><polygon fill="none" points="695.281,298.603,679.865,284.064,700.982,285.816,695.281,298.603" style="stroke: #A80036; stroke-width: 1.0;"/><!--link AbstractHttpInterface to XmlInterfaceHelper--><path d="M491.068,292.272 C453.454,309.099 411.407,327.91 375.565,343.945 " fill="none" id="AbstractHttpInterface-XmlInterfaceHelper" style="stroke: #A80036; stroke-width: 1.0; stroke-dasharray: 7.0,7.0;"/><polygon fill="none" points="488.3,285.842,509.415,284.064,494.017,298.622,488.3,285.842" style="stroke: #A80036; stroke-width: 1.0;"/><!--link JsonInterfaceHelper to HttpHelper--><path d="M814.135,422.064 C773.831,440.036 725.71,461.4934 684.797,479.7364 " fill="none" id="JsonInterfaceHelper-HttpHelper" style="stroke: #A80036; stroke-width: 1.0; stroke-dasharray: 7.0,7.0;"/><polygon fill="#A80036" points="679.844,481.9448,689.6928,481.9312,684.4102,479.9078,686.4336,474.6252,679.844,481.9448" style="stroke: #A80036; stroke-width: 1.0;"/><!--link XmlInterfaceHelper to HttpHelper--><path d="M375.585,422.064 C415.757,440.036 463.721,461.4934 504.499,479.7364 " fill="none" id="XmlInterfaceHelper-HttpHelper" style="stroke: #A80036; stroke-width: 1.0; stroke-dasharray: 7.0,7.0;"/><polygon fill="#A80036" points="509.435,481.9448,502.8525,474.6187,504.8708,479.9033,499.5862,481.9215,509.435,481.9448" style="stroke: #A80036; stroke-width: 1.0;"/><!--
@startuml
class HttpInterface {
    {abstract} ObjectMapper objectMapper()
    {abstract} HttpHelper httpHelper()
    {abstract} HttpHelper httpHelper(HttpConfig httpConfig)
    {abstract} HttpMessageCallBack callBack()

    <T> ResponseWrapper<T> requestForEntity(...) throws InterfaceException
    <T> T requestForObject(...) throws InterfaceException
}

class AbstractHttpInterface {
    ...
    <T> T handleResponse(HttpConfig httpConfig, final Request request, final ResponseExtractor<T> extractor)
}

class JsonInterfaceHelper {
    ...
    JsonInterfaceHelper(final HttpConfig httpConfig,final ObjectMapper jsonConverter,final HttpMessageCallBack callBack)
}

class XmlInterfaceHelper {
    ...
    XmlInterfaceHelper(final HttpConfig httpConfig,final ObjectMapper xmlConverter,final HttpMessageCallBack callBack)
}

class HttpHelper{
    ...
    Response execute(Request request) throws IOException
}

HttpInterface <|- - AbstractHttpInterface

AbstractHttpInterface <|.. JsonInterfaceHelper
AbstractHttpInterface <|.. XmlInterfaceHelper

HttpHelper <.down. JsonInterfaceHelper
HttpHelper <.down. XmlInterfaceHelper
@enduml

PlantUML version 1.2017.15(Tue Jul 04 00:45:34 CST 2017)
(GPL source distribution)
Java Runtime: OpenJDK Runtime Environment
JVM: OpenJDK 64-Bit Server VM
Java Version: 1.8.0_112-release-736-b21
Operating System: Windows 10
OS Version: 10.0
Default Encoding: GBK
Language: zh
Country: CN
--></g></svg>